<svg xmlns="http://www.w3.org/2000/svg" id="Capa_2" data-name="Capa 2" viewBox="0 0 730 608.59"><defs><style>      .cls-1 {        opacity: .2;      }      .cls-2 {        stroke-width: 0px;      }    </style></defs><g id="Capa_1-2" data-name="Capa 1"><g><g><path class="cls-2" d="m359.17,364.69c-17.06,23.38-38.81,41.17-65.23,53.36-26.42,12.19-55.35,18.27-86.79,18.27-35.12,0-65.73-6.28-91.81-18.82-26.09-12.54-47.74-29.02-64.95-49.41-17.22-20.39-29.93-43.38-38.11-68.96C4.08,273.53,0,247.54,0,221.12c0-1,.08-8.61.25-22.82.17-14.21,4.86-34.35,14.07-60.43,9.21-26.08,22.69-49.31,40.43-69.7,17.74-20.39,39.83-36.85,66.27-49.38C147.46,6.26,178.25,0,213.4,0c13.72,0,25.93,1.35,36.65,4.02,10.71,2.67,20.66,5.52,29.87,8.53,9.2,3.01,18.07,5.86,26.61,8.53,8.53,2.67,17.32,4.01,26.36,4.01,3.64,0,6.95-.58,9.93-1.75,2.98-1.17,4.97-3.76,5.97-7.77h2.98s12.48,89.26,12.48,89.26l-3.01.5c-6.02-16.71-13.97-31.51-23.83-44.38-9.86-12.87-21.4-23.57-34.61-32.1-13.21-8.53-27.67-14.94-43.39-19.23-15.72-4.29-32.28-6.43-49.67-6.43-29.44,0-55.28,6.09-77.52,18.28-22.25,12.19-40.9,28.32-55.95,48.37-15.06,20.05-26.52,42.86-34.38,68.42-7.87,25.57-11.88,45.2-12.05,58.91-.17,13.7-.25,20.89-.25,21.55,0,26.07,3.67,51.72,11.03,76.96,7.36,25.24,18.64,47.88,33.87,67.93,15.22,20.06,34.29,36.19,57.21,48.39,22.92,12.2,49.94,18.31,81.07,18.32,21.75,0,42.58-3.33,62.5-10.01,19.91-6.68,37.9-16.36,53.96-29.06l.02-113.77c0-8.68-1.84-14.62-5.52-17.79-3.68-3.17-10.55-4.77-20.59-4.77l-93.42-.02v-3.2s175.57.04,175.57.04v3.2c-10.03,0-16.88,1.59-20.56,4.76-3.68,3.17-5.51,9.1-5.52,17.79l-.02,87.19Z"></path><path class="cls-2" d="m430.92,28.41c0-8.69-1.84-14.62-5.52-17.79-3.68-3.17-10.53-4.77-20.56-4.77v-3.01s82.27.02,82.27.02v2.8c-10.09,0-16.99,1.59-20.68,4.76-3.7,3.18-5.55,9.11-5.55,17.8l-.05,243.7,200.98.04.05-243.7c0-8.69-1.85-14.62-5.55-17.8-3.7-3.17-10.59-4.77-20.68-4.77v-2.8s82.27.02,82.27.02v3.01c-10.03,0-16.89,1.59-20.57,4.76-3.68,3.18-5.51,9.11-5.52,17.79l-.08,379.99c0,8.69,1.83,14.63,5.51,17.8,3.68,3.17,10.53,4.76,20.56,4.76v3.01s-82.27-.02-82.27-.02v-3.2c10.09,0,16.98-1.58,20.68-4.76,3.7-3.17,5.55-9.11,5.55-17.8l.03-133.38-200.98-.04-.03,133.38c0,8.69,1.84,14.63,5.54,17.8,3.7,3.18,10.59,4.77,20.68,4.77v3.2s-82.27-.02-82.27-.02v-3.01c10.03,0,16.88-1.58,20.56-4.76,3.68-3.17,5.52-9.1,5.52-17.79l.08-379.99Z"></path></g><g><g class="cls-1"><polygon class="cls-2" points="500.22 61.96 375 188.52 249.78 61.96 20.81 293.38 20 294.2 20 520.62 208.86 520.62 208.86 517.81 208.86 515 208.86 356.58 209.67 355.75 270.44 294.33 371.11 192.58 373.09 190.58 375.05 188.6 376.96 190.53 378.94 192.53 479.56 294.24 541.24 356.58 541.24 515 541.24 517.81 541.24 520.62 730 520.62 730 294.2 500.22 61.96"></polygon></g><g><path class="cls-2" d="m135.99,530.49l-36,77.15h-15.91l-36-77.15h20.57l20.76,46.19,2.67,7.71h.19l2.48-7.71,20.86-46.19h20.38Z"></path><path class="cls-2" d="m240.75,607.64h-66.2v-77.15h66.2v16.29h-49.34l1.71,1.71v10.67l-1.71,1.71h44.76v16.38h-44.76l1.71,1.71v10.67l-1.71,1.71h49.34v16.29Z"></path><path class="cls-2" d="m357.43,607.64h-15.33l-32.19-38-6.57-9.71h-.19v47.72h-18.57v-77.15h15.33l32.76,38.29,6,8.95h.19v-47.24h18.57v77.15Z"></path><path class="cls-2" d="m477.63,572.01c0,22.95-12.1,36.57-37.43,36.57s-37.53-13.43-37.53-36.57v-41.53h18.57v41.43c0,13.72,4.95,20.29,18.95,20.29s18.86-6.57,18.86-20.29v-41.43h18.57v41.53Z"></path><path class="cls-2" d="m589.06,607.64h-66.2v-77.15h66.2v16.29h-49.34l1.71,1.71v10.67l-1.71,1.71h44.76v16.38h-44.76l1.71,1.71v10.67l-1.71,1.71h49.34v16.29Z"></path><path class="cls-2" d="m666.4,608.59c-14.57,0-27.81-4.76-37.34-13.52l12.67-12.76c6.29,6.1,17.43,10,26.29,10,11.24,0,15.05-2.86,15.05-6.76,0-1.52-1.43-5.14-11.33-7.52-1.71-.38-12.57-2.95-14.29-3.43-13.72-3.33-26.95-8.48-26.95-22.1s12.67-22.95,34.95-22.95c14.76,0,26.86,5.05,35.05,13.43l-12.86,12.67c-4.57-5.33-14-9.91-22.48-9.91-10.95-.1-15.81,2.95-15.81,6.29,0,2.95,3.62,4.29,15.14,7.14,1.71.48,10.57,2.67,12.38,3.05,16.38,3.81,25.05,12.67,25.05,23.33,0,12.19-11.24,23.05-35.53,23.05Z"></path></g></g></g></g></svg>