<svg xmlns="http://www.w3.org/2000/svg" id="Capa_2" data-name="Capa 2" viewBox="0 0 746 574.4"><defs><style>      .cls-1 {        fill: #00fef1;        stroke-width: 0px;      }    </style></defs><path class="cls-1" d="m746,501.9V74.3h-1.8l.9-1.5L621.6.4l-249.2,141.7L129.7,1.4l-2.4-1.4L0,75.9l.6,1.1,1.3,424.3h1.8l-.9,1.6,125.1,70.9,124.3-73.4-.8-1.4h2.2l.5-133.2,119,68.7,113.6-65.6,5.8-3.3.3,135.3h1.4l-.7,1.2,126.8,72.3,125.2-71.4-.6-1.1h1.1Zm-315.5-112.4l-50-31,50.1-28.5-.1,59.5h0Zm306-40.2l-107.4-61.5,107.4-61.5v123Zm-479.7-121.7l43.5,24.7-43.5,23.9v-48.6h0Zm61.2,15v-49.2l44,25-44,24.2Zm50.4-16.8v54.2l-48.5-27.5,48.5-26.7h0Zm-4.4,62.7l-46,25.5v-51.7l46,26.2Zm14-61l47.4,26.9-47.4,26.4v-53.3h0Zm3.6-8.9l49-26.9v54.7l-49-27.8Zm58.5-24.8l46.3,26.7-46.3,25.7v-52.4h0Zm-62.1,15.9v-51.7l45.9,26.5-45.9,25.2Zm-9.6,1.4l-46.6-26.5,46.6-26.9v53.4h0Zm-59.9,34.8l-46.8-26.6,46.8-27v53.6Zm0,12.8v55l-47-29.2,47-25.8Zm59.9,38.3v53.9l-45.9-28.5,45.9-25.4Zm62.1-34.5v52.8l-47-26.7,47-26.1h0Zm58.6-32.5v49.7l-44.3-25.2,44.3-24.5h0Zm-234.5-17.6l.5-127.3,109.8,63.7-110.3,63.6Zm-9.6-3.9l-108.7-61.6,109.1-62.5-.4,124.1Zm-2.6,9.5l-109.9,61.7v-124l109.9,62.3h0Zm-119.4,60.2L15,216.4l108-61.8v123.6Zm122-50.7l-.4,120.3-105.8-60.6,106.2-59.7Zm11.8,65.4l46.9,29.1-46.9,26v-55.1Zm105,65.2l-43.8,24.9v-52.1l43.8,27.2Zm6.6,7.2v52.6l-46.6-26,46.6-26.6Zm9.6-68.9l46.1,26.2-46.1,26.3v-52.5Zm62.1-33.6l44.6,25.3-44.6,25.4v-50.7h0Zm61.5-37l108.3,62-108,61.8-.3-123.8h0Zm4.9-8.1l109.2-62.5-.2,124.8-109-62.3h0Zm225.9,140.3l-107.7,61.6.3-123.1,107.4,61.5Zm-107.4-78.8l.3-123.3,107.6,61.6-107.9,61.7h0Zm-123.4-69.7l-.3-124.6,109,62.4-108.7,62.2Zm-369.1-71.4V14.2l107,62.7-107,61.2ZM10.5,208l-.4-121.6,107,60.6S10.5,208,10.5,208Zm108.9,79.2l-108.4,60.9-.4-123.2,108.8,62.3Zm3.6,8.9v122.8l-108.4-61.9,108.4-60.9h0Zm-4.9,130.9l-106.7,61.1-.4-122.2,107.1,61.1h0Zm14.4-132.3l108.3,62-108.3,62v-124h0Zm176,35.6v54.1l-48.6-27.2,48.6-26.9Zm69.5,37.8l43,26.7-43,24.3v-51Zm111.1-71.5v52l-45.7-26,45.7-26Zm126.3-.9l-.3,124.1-108.2-62,108.5-62.1Zm121.1,70.9v122.6l-107-61.3,107-61.3h0Zm0-158.1l-107-61.2,107-61.2v122.4Zm-111.2-69.9l.3-124.8,107.6,63.1-107.9,61.7h0Zm-9.5.8l-109.3-62.6,109.5-62.3-.2,124.9Zm-123.8,73.4l-111.5-64.4,111.2-63.2.3,127.6ZM123,139.4L14.9,78.1,123,13.6v125.8h0Zm0,295.8v124.8l-109.6-62.1,109.6-62.7h0Zm9.5.1l107.3,61.2-107.3,63.3v-124.5h0Zm4.8-8.3l107.2-61.3-.5,122.2-106.7-60.9Zm302.8-43v-52.3l46.2,26.2-4.3,2.5-41.9,23.6h0Zm170.1,43.9l-108.1,61.9-.3-123.9,108.4,62h0Zm4.9,8.2l-.3,124.2-108.6-61.9,108.9-62.3h0Zm9.6.1l109.2,62.5-109.4,62.2.2-124.7h0Z"></path></svg>